<svg width="200" height="200" viewBox="0 0 200 200" fill="none" xmlns="http://www.w3.org/2000/svg">
<g clip-path="url(#clip0_1_2)">
<path d="M200 94.1138V105.779H161.917V47.0828H175.324V94.1103H200V94.1138ZM23.9276 105.776C37.6655 105.776 49.2103 96.4448 52.5 83.8172L85.8965 109.755L119.272 83.8276V105.776H157.355V94.1103H132.683V47.0828H119.276V69.0276L87.2655 93.8931L80.1069 88.331L95.4276 76.4241L112.114 63.4621L102.593 56.0552L70.5759 80.9276L63.4207 75.3655L95.431 50.5L85.8965 43.1035L52.5 69.0414C49.2103 56.4138 37.6655 47.0828 23.9276 47.0828H0V105.776H23.9276ZM13.4069 94.1103V58.7483H23.9276C32.8241 58.7483 40.0345 66.6655 40.0345 76.431C40.0345 86.1966 32.8207 94.1138 23.9276 94.1138H13.4069V94.1103ZM200 143.641C200 140.131 198.038 138.576 194.117 137.79C190.197 137.003 187.841 136.617 187.841 133.89C187.841 131.938 189.41 130.772 192.155 130.772C195.686 130.772 196.859 132.334 196.859 134.283L197.248 134.672H198.821L199.21 134.283C199.21 130.383 196.069 128.821 192.152 128.821C187.838 128.821 185.486 131.159 185.486 133.893C185.486 137.01 187.838 138.572 191.762 139.348C195.686 140.124 197.648 140.521 197.648 143.638C197.648 145.59 196.476 147.148 192.552 147.148C189.021 147.148 187.455 145.197 187.455 142.859L187.066 142.469H185.497L185.107 142.859C185.107 146.369 187.852 149.1 192.555 149.1C197.652 149.1 200.003 146.762 200.003 143.638L200 143.641ZM183.134 139.748L183.524 139.359V138.193C183.524 132.731 180.39 128.831 174.897 128.831C169.403 128.831 166.269 132.731 166.269 138.193V138.972C166.269 144.428 169.014 149.114 175.29 149.114C180.776 149.114 182.738 145.603 183.134 143.262L182.745 142.872H181.172L180.783 143.262C180 145.6 178.431 147.162 175.297 147.162C170.193 147.162 168.631 142.483 168.631 140.145L169.021 139.755H183.134V139.748ZM180.783 137.797H169.021L168.631 137.407C168.631 134.679 170.2 130.779 174.907 130.779C179.614 130.779 181.183 134.679 181.183 137.407L180.786 137.797H180.783ZM163.528 148.324V129.607L163.138 129.217H161.566L161.176 129.607V148.324L161.566 148.714H163.138L163.528 148.324ZM163.528 125.703V123.366L163.138 122.976H161.566L161.176 123.366V125.703L161.566 126.093H163.138L163.528 125.703ZM148.624 147.152C144.7 147.152 142.348 144.424 142.348 138.962C142.348 133.5 144.7 130.772 148.624 130.772C152.548 130.772 154.9 133.5 154.9 138.962C154.9 144.424 152.548 147.152 148.624 147.152ZM154.9 145.979C154.9 151.048 153.721 154.948 149.017 154.948C145.486 154.948 144.314 153.386 143.921 151.438L143.531 151.048H141.959L141.569 151.438C141.959 154.555 144.314 156.893 149.017 156.893C154.121 156.893 157.255 153.776 157.255 145.976V129.597L156.866 129.207H155.686L155.297 129.597L154.907 131.941H154.517C153.734 130.379 151.772 128.817 148.241 128.817C142.755 128.817 140.003 133.107 140.003 138.959C140.003 144.81 142.748 149.1 148.241 149.1C151.772 149.1 153.734 147.545 154.517 145.983H154.907L154.9 145.979ZM129.407 130.772C133.331 130.772 136.072 133.89 136.072 138.962C136.072 144.034 133.328 147.152 129.407 147.152C125.486 147.152 122.741 144.034 122.741 138.962C122.741 133.89 125.486 130.772 129.407 130.772ZM129.407 149.103C134.503 149.103 138.428 145.593 138.428 138.962C138.428 132.331 134.503 128.821 129.407 128.821C124.31 128.821 120.386 132.331 120.386 138.962C120.386 145.593 124.31 149.103 129.407 149.103ZM117.645 148.324V121.803L117.252 121.414H115.683L115.293 121.803V148.324L115.683 148.714H117.252L117.645 148.324ZM103.524 130.772C107.448 130.772 110.19 133.89 110.19 138.962C110.19 144.034 107.445 147.152 103.524 147.152C99.6034 147.152 96.8586 144.034 96.8586 138.962C96.8586 133.89 99.6034 130.772 103.524 130.772ZM103.524 149.103C108.621 149.103 112.545 145.593 112.545 138.962C112.545 132.331 108.621 128.821 103.524 128.821C98.4276 128.821 94.5034 132.331 94.5034 138.962C94.5034 145.593 98.4276 149.103 103.524 149.103ZM92.1517 148.324V136.624C92.1517 131.559 89.4069 128.824 85.0931 128.824C82.3483 128.824 79.9897 129.997 78.8172 131.948H78.4276L78.0379 129.603L77.6483 129.214H76.469L76.0793 129.603V148.321L76.469 148.71H78.0414L78.431 148.321V137.793C78.431 133.503 80.3931 130.776 84.7069 130.776C87.8414 130.776 89.8034 132.728 89.8034 136.628V148.328L90.1931 148.717H91.7621L92.1517 148.324ZM72.1448 148.324V136.624C72.1448 131.559 69.4 128.824 65.0862 128.824C62.3414 128.824 59.9897 129.997 58.8103 131.948H58.4207V121.807L58.031 121.417H56.4586L56.069 121.807V148.328L56.4586 148.717H58.031L58.4207 148.328V137.8C58.4207 133.51 60.3828 130.783 64.6965 130.783C67.831 130.783 69.7931 132.734 69.7931 136.634V148.338L70.1828 148.728H71.7517L72.1414 148.331L72.1448 148.324ZM38.4207 138.962C38.4207 133.5 41.1655 130.772 45.0862 130.772C49.0069 130.772 50.5724 133.11 50.9724 135.452L51.3621 135.841H52.9345L53.3241 135.452C52.9345 131.552 49.7931 128.824 45.0862 128.824C39.9897 128.824 36.0655 131.948 36.0655 138.966C36.0655 145.983 39.9897 149.107 45.0862 149.107C49.7931 149.107 52.931 146.379 53.3241 142.479L52.9345 142.09H51.3621L50.9724 142.479C50.5828 144.817 49.0103 147.159 45.0862 147.159C41.1621 147.159 38.4207 144.431 38.4207 138.969V138.962ZM34.1069 139.745L34.4966 139.355V138.19C34.4966 132.728 31.3552 128.828 25.869 128.828C20.3828 128.828 17.2414 132.728 17.2414 138.19V138.969C17.2414 144.424 19.9862 149.11 26.2621 149.11C31.7483 149.11 33.7103 145.6 34.1069 143.259L33.7172 142.869H32.1517L31.7621 143.259C30.9793 145.597 29.4103 147.159 26.2759 147.159C21.1793 147.159 19.6103 142.479 19.6103 140.141L20 139.752H34.1034L34.1069 139.745ZM31.7552 137.793H19.9828L19.5931 137.403C19.5931 134.676 21.1621 130.776 25.869 130.776C30.5759 130.776 32.1448 134.676 32.1448 137.403L31.7552 137.793ZM21.1828 122.976V121.803L20.7931 121.414H0.389655L0 121.807V122.979L0.389655 123.369H9.01724L9.4069 123.759V148.328L9.79655 148.717H11.3655L11.7552 148.328V123.759L12.1448 123.369H20.7724L21.169 122.979L21.1828 122.976Z" fill="#0076CE"/>
</g>
<defs>
<clipPath id="clip0_1_2">
<rect width="200" height="200" fill="white"/>
</clipPath>
</defs>
</svg>
