<svg width="200" height="200" viewBox="0 0 200 200" fill="none" xmlns="http://www.w3.org/2000/svg">
<g clip-path="url(#clip0_1_4)">
<path d="M61.2701 90.8404C60.4059 92.9239 58.06 93.9424 55.8222 93.9579H52.4423L56.3315 87.229H59.5879C60.9923 87.2753 62.0572 88.9421 61.2701 90.8404ZM54.3715 104.329C53.4146 106.876 50.1736 107.786 48.3833 107.786H44.5096L48.5686 100.733H52.4269C53.5998 100.733 55.282 101.968 54.3715 104.329ZM64.1253 80.3766H44.3398L41.8242 84.7133L52.4886 85.4541L52.0873 86.1795L40.5895 86.9203L37.1788 92.8313L47.8741 93.5103L47.4574 94.2202L10.9576 96.597L9.33713 99.4521L43.2441 101.566L42.8428 102.276L23.9679 103.372L25.4032 108.728L38.7067 109.53L38.29 110.24L26.0668 111.104L27.2243 115.626H50.5131C56.1463 115.626 66.2551 111.907 67.428 104.098C67.4589 103.912 67.4743 103.727 67.4898 103.557C67.5052 103.372 67.5052 103.187 67.4898 103.002C67.4743 102.817 67.4589 102.631 67.4435 102.462C67.4126 102.276 67.3817 102.107 67.3354 101.921C67.2891 101.736 67.2428 101.566 67.1811 101.397C67.1194 101.227 67.0422 101.057 66.965 100.887C66.8879 100.718 66.7953 100.563 66.7027 100.409C66.6101 100.255 66.502 100.1 66.394 99.9614C66.286 99.8225 66.1625 99.6682 66.039 99.5447C65.9156 99.4058 65.7767 99.2824 65.6378 99.1589C65.4989 99.0354 65.36 98.9274 65.2056 98.8194C65.0513 98.7113 64.897 98.6187 64.7426 98.5261C64.5883 98.4335 64.4185 98.3564 64.2488 98.2792C64.079 98.202 63.9092 98.1403 63.7395 98.0786C63.5697 98.0168 63.3845 97.9705 63.2147 97.9397C63.0295 97.8934 62.8598 97.8625 62.6746 97.8471C69.9591 95.7944 72.4284 90.9021 72.9531 88.9575C74.6971 82.5527 70.206 80.3766 64.1253 80.3766Z" fill="black"/>
<path d="M0 115.642H16.776L19.1064 111.598L1.6205 112.833L0 115.642Z" fill="black"/>
<path d="M33.7835 80.392L20.2948 80.3766L18.6897 83.2009L34.8021 84.204L33.7835 80.392Z" fill="black"/>
<path d="M35.5737 87.229L15.6339 88.4945L14.0134 91.3188L37.0553 92.8313L35.5737 87.229Z" fill="black"/>
<path d="M4.66086 107.539L20.9121 108.45L23.8444 103.372L6.29679 104.715L4.66086 107.539Z" fill="black"/>
<path d="M78.5863 104.468V114.932H75.4071V104.468H73.8483V101.613H75.4071V97.1834H78.5863V101.644H80.5V104.483L78.5863 104.468Z" fill="black"/>
<path d="M88.0932 104.113C87.9852 104.113 87.8772 104.113 87.7537 104.113C87.6302 104.113 87.5376 104.128 87.4296 104.144C87.3216 104.159 87.2135 104.175 87.1055 104.206C86.9975 104.236 86.8894 104.267 86.7814 104.298C86.6734 104.329 86.5653 104.375 86.4727 104.422C86.3647 104.468 86.2721 104.514 86.1795 104.561C86.0869 104.607 85.9943 104.669 85.9017 104.73C85.8091 104.792 85.7165 104.854 85.6393 104.931C85.5467 104.993 85.4696 105.07 85.3924 105.147C85.3152 105.224 85.2381 105.301 85.1609 105.394C85.0837 105.471 85.022 105.564 84.9603 105.656C84.8985 105.749 84.8368 105.842 84.7751 105.934C84.7133 106.027 84.667 106.135 84.6207 106.227C84.5744 106.32 84.5281 106.428 84.4973 106.536C84.4664 106.644 84.4201 106.752 84.3892 106.86C84.3584 106.968 84.3429 107.076 84.3121 107.184H91.6737C91.6583 107.076 91.6429 106.968 91.6275 106.86C91.612 106.752 91.5812 106.644 91.5503 106.551C91.5194 106.443 91.4731 106.351 91.4423 106.243C91.4114 106.135 91.3496 106.042 91.3033 105.95C91.257 105.857 91.1953 105.764 91.1336 105.672C91.0719 105.579 91.0101 105.502 90.9484 105.409C90.8867 105.317 90.8095 105.24 90.7323 105.162C90.6552 105.085 90.578 105.008 90.5008 104.946C90.4237 104.885 90.3311 104.807 90.2385 104.746C90.1459 104.684 90.0533 104.622 89.9607 104.576C89.8681 104.53 89.7755 104.483 89.6674 104.437C89.5748 104.391 89.4668 104.36 89.3742 104.329C89.2662 104.298 89.1736 104.267 89.0655 104.236C88.9575 104.206 88.8495 104.19 88.7414 104.175C88.6334 104.159 88.5254 104.159 88.4173 104.144C88.3093 104.144 88.2013 104.144 88.0932 104.144V104.113ZM94.745 109.731H84.4047C84.4818 110.07 84.6207 110.394 84.8368 110.688C85.0066 110.965 85.2226 111.197 85.4541 111.428C85.6856 111.644 85.948 111.83 86.2258 111.984C86.5036 112.138 86.8123 112.262 87.1209 112.339C87.4296 112.416 87.7537 112.462 88.0778 112.462C88.2321 112.478 88.3865 112.478 88.5408 112.462C88.6951 112.447 88.8495 112.432 88.9884 112.401C89.1427 112.37 89.2816 112.324 89.4205 112.277C89.5594 112.231 89.6983 112.169 89.8372 112.092C89.9761 112.015 90.0996 111.938 90.223 111.845C90.3465 111.752 90.47 111.66 90.578 111.552C90.686 111.444 90.7941 111.336 90.8867 111.212C90.9793 111.089 91.0718 110.965 91.149 110.826H94.5135C94.4517 111.027 94.3746 111.212 94.282 111.398C94.2048 111.583 94.1122 111.768 94.0042 111.938C93.8961 112.123 93.7881 112.293 93.6801 112.462C93.5566 112.632 93.4486 112.802 93.3097 112.956C93.1862 113.111 93.0473 113.265 92.893 113.419C92.7541 113.558 92.5997 113.697 92.4454 113.836C92.2911 113.975 92.1213 114.098 91.967 114.206C91.7972 114.33 91.6274 114.438 91.4577 114.53C91.2879 114.639 91.1027 114.731 90.9175 114.808C90.7323 114.901 90.5471 114.978 90.3465 115.04C90.1613 115.117 89.9607 115.179 89.76 115.225C89.5594 115.271 89.3588 115.318 89.1581 115.364C88.9575 115.395 88.7569 115.426 88.5562 115.441C88.3556 115.456 88.155 115.472 87.9389 115.472C87.7383 115.472 87.5376 115.456 87.3216 115.441C87.1209 115.426 86.9203 115.395 86.7197 115.364C86.519 115.333 86.3184 115.287 86.1178 115.225C85.9171 115.163 85.7319 115.102 85.5313 115.04C85.3461 114.963 85.1455 114.885 84.9603 114.793C84.7751 114.7 84.5899 114.608 84.4201 114.5C84.2503 114.392 84.0806 114.284 83.9108 114.16C83.741 114.037 83.5867 113.913 83.4324 113.774C83.278 113.635 83.1237 113.496 82.9848 113.358C82.8459 113.203 82.707 113.064 82.5835 112.895C82.4601 112.74 82.3366 112.57 82.2131 112.401C82.0897 112.231 81.9971 112.061 81.889 111.876C81.7964 111.691 81.7038 111.521 81.6112 111.32C81.5341 111.135 81.4569 110.95 81.3952 110.749C81.3334 110.549 81.2717 110.363 81.2254 110.163C81.1791 109.962 81.1328 109.762 81.1019 109.561C81.0711 109.36 81.0556 109.16 81.0402 108.944C81.0248 108.743 81.0248 108.542 81.0248 108.326C81.0248 108.095 81.0248 107.863 81.0402 107.632C81.0556 107.4 81.0865 107.169 81.1328 106.937C81.1791 106.706 81.2254 106.474 81.2871 106.258C81.3489 106.027 81.426 105.811 81.5032 105.595C81.5958 105.379 81.6884 105.162 81.7964 104.962C81.9045 104.761 82.0125 104.561 82.1514 104.36C82.2749 104.159 82.4138 103.974 82.5527 103.789C82.6916 103.604 82.8459 103.434 83.0157 103.264C83.1854 103.094 83.3552 102.94 83.525 102.786C83.7102 102.631 83.8954 102.493 84.0806 102.369C84.2658 102.246 84.4664 102.122 84.6825 102.014C84.8831 101.906 85.0992 101.798 85.3152 101.721C85.5313 101.644 85.7474 101.551 85.9789 101.489C86.1949 101.428 86.4264 101.366 86.6579 101.32C86.8894 101.273 87.1209 101.242 87.3524 101.227C87.5839 101.212 87.8154 101.196 88.0469 101.196C88.2784 101.196 88.4945 101.196 88.726 101.227C88.9575 101.242 89.1736 101.273 89.4051 101.32C89.6211 101.366 89.8526 101.412 90.0687 101.489C90.2847 101.551 90.5008 101.628 90.7169 101.721C90.9329 101.813 91.1336 101.906 91.3342 102.014C91.5348 102.122 91.7355 102.23 91.9207 102.369C92.1059 102.508 92.2911 102.631 92.4608 102.77C92.6306 102.909 92.8004 103.064 92.9701 103.233C93.1245 103.388 93.2788 103.557 93.4177 103.743C93.5566 103.912 93.6955 104.098 93.819 104.298C93.9424 104.483 94.0659 104.684 94.1585 104.885C94.2665 105.085 94.3591 105.286 94.4517 105.502C94.5443 105.718 94.6061 105.934 94.6678 106.15C94.7295 106.366 94.7913 106.582 94.8221 106.814C94.8684 107.03 94.8993 107.261 94.9147 107.493C94.9302 107.724 94.9456 107.94 94.9456 108.172C94.9302 108.666 94.8684 109.206 94.745 109.731Z" fill="black"/>
<path d="M103.218 104.144C103.079 104.144 102.94 104.159 102.817 104.175C102.678 104.19 102.554 104.206 102.415 104.236C102.276 104.267 102.153 104.298 102.029 104.344C101.906 104.391 101.767 104.437 101.644 104.483C101.52 104.545 101.397 104.607 101.289 104.669C101.165 104.73 101.057 104.807 100.949 104.885C100.841 104.962 100.733 105.054 100.625 105.132C100.517 105.224 100.424 105.317 100.332 105.409C100.239 105.502 100.147 105.61 100.069 105.718C99.9923 105.826 99.9151 105.934 99.8379 106.058C99.7608 106.166 99.699 106.289 99.6373 106.413C99.5756 106.536 99.5293 106.659 99.483 106.783C99.4367 106.906 99.3904 107.045 99.3595 107.169C99.3286 107.308 99.2978 107.431 99.2823 107.57C99.2669 107.709 99.2515 107.832 99.236 107.971C99.236 108.11 99.236 108.249 99.236 108.373C99.236 108.511 99.236 108.635 99.2515 108.774C99.2669 108.913 99.2823 109.036 99.2978 109.175C99.3132 109.299 99.3441 109.437 99.3904 109.561C99.4212 109.684 99.4675 109.808 99.5138 109.931C99.5601 110.055 99.6219 110.178 99.6836 110.286C99.7453 110.41 99.8071 110.518 99.8842 110.626C99.9614 110.734 100.039 110.842 100.116 110.95C100.193 111.058 100.286 111.151 100.378 111.243C100.471 111.336 100.563 111.428 100.671 111.521C100.779 111.614 100.872 111.691 100.98 111.768C101.088 111.845 101.196 111.907 101.32 111.984C101.443 112.061 101.551 112.107 101.674 112.154C101.798 112.2 101.921 112.246 102.045 112.293C102.168 112.339 102.292 112.37 102.431 112.385C102.554 112.416 102.693 112.432 102.817 112.447C102.955 112.462 103.079 112.462 103.218 112.462C103.357 112.462 103.48 112.447 103.619 112.432C103.758 112.416 103.881 112.401 104.02 112.37C104.144 112.339 104.283 112.308 104.406 112.262C104.53 112.215 104.653 112.169 104.777 112.123C104.9 112.077 105.024 112.015 105.132 111.938C105.255 111.876 105.363 111.799 105.471 111.722C105.579 111.644 105.687 111.567 105.78 111.475C105.872 111.382 105.98 111.289 106.073 111.197C106.166 111.104 106.243 110.996 106.335 110.888C106.413 110.78 106.49 110.672 106.567 110.564C106.629 110.456 106.706 110.333 106.752 110.209C106.798 110.086 106.86 109.962 106.906 109.839C106.953 109.715 106.984 109.592 107.014 109.453C107.045 109.329 107.076 109.191 107.092 109.067C107.107 108.928 107.122 108.805 107.122 108.666C107.122 108.527 107.122 108.403 107.122 108.265C107.138 108.126 107.138 108.002 107.122 107.863C107.122 107.724 107.107 107.601 107.092 107.462C107.076 107.323 107.045 107.2 107.014 107.076C106.984 106.953 106.937 106.814 106.906 106.69C106.86 106.567 106.814 106.443 106.752 106.32C106.69 106.196 106.629 106.088 106.567 105.965C106.505 105.857 106.428 105.749 106.335 105.641C106.243 105.533 106.166 105.44 106.073 105.332C105.98 105.24 105.888 105.147 105.78 105.054C105.687 104.962 105.579 104.885 105.471 104.807C105.363 104.73 105.255 104.653 105.132 104.591C105.008 104.53 104.9 104.468 104.777 104.422C104.653 104.375 104.53 104.329 104.406 104.283C104.283 104.236 104.144 104.206 104.02 104.175C103.897 104.144 103.758 104.128 103.635 104.113C103.48 104.159 103.341 104.144 103.218 104.144ZM107.2 114.963V113.311C106.906 113.635 106.567 113.913 106.212 114.175C105.857 114.438 105.471 114.654 105.07 114.824C104.669 115.009 104.252 115.148 103.835 115.24C103.403 115.333 102.971 115.395 102.539 115.395C98.5415 115.395 96.0722 112.015 96.0722 108.218C96.0568 107.987 96.0568 107.771 96.0722 107.539C96.0876 107.308 96.1031 107.092 96.1494 106.876C96.1802 106.659 96.2266 106.428 96.2883 106.212C96.35 105.996 96.4117 105.78 96.4889 105.564C96.5661 105.348 96.6587 105.147 96.7513 104.946C96.8439 104.746 96.9673 104.545 97.0754 104.36C97.1988 104.175 97.3223 103.99 97.4612 103.804C97.6001 103.619 97.739 103.449 97.8933 103.295C98.0477 103.125 98.2174 102.971 98.3872 102.832C98.557 102.678 98.7422 102.539 98.9119 102.415C99.0971 102.292 99.2823 102.168 99.483 102.06C99.6836 101.952 99.8842 101.844 100.085 101.752C100.286 101.659 100.502 101.582 100.718 101.505C100.934 101.443 101.15 101.381 101.366 101.335C101.582 101.289 101.813 101.258 102.029 101.227C102.261 101.196 102.477 101.181 102.709 101.181C103.063 101.181 103.434 101.227 103.789 101.289C104.144 101.366 104.483 101.458 104.823 101.597C105.162 101.736 105.487 101.891 105.78 102.091C106.088 102.292 106.366 102.508 106.644 102.755C106.829 102.925 106.984 103.11 107.122 103.31V101.644H110.055V114.947L107.2 114.963Z" fill="black"/>
<path d="M129.115 114.963V107.57C129.115 105.872 128.652 104.113 126.584 104.113C126.368 104.113 126.152 104.144 125.936 104.206C125.72 104.267 125.519 104.344 125.318 104.453C125.118 104.561 124.948 104.699 124.794 104.854C124.639 105.008 124.5 105.178 124.377 105.363C124.192 105.78 124.053 106.227 123.96 106.69C123.883 107.153 123.852 107.616 123.898 108.079V114.978H120.704V107.585C120.704 105.842 120.056 104.128 118.034 104.128C115.642 104.128 115.503 106.521 115.503 108.326V114.978H112.308V101.659H115.24V102.786H115.287C115.487 102.508 115.719 102.276 115.981 102.06C116.244 101.844 116.537 101.675 116.845 101.536C117.154 101.397 117.478 101.304 117.802 101.242C118.126 101.181 118.466 101.165 118.805 101.196C118.991 101.196 119.176 101.212 119.376 101.227C119.562 101.242 119.747 101.289 119.932 101.335C120.117 101.381 120.287 101.443 120.472 101.505C120.642 101.566 120.812 101.659 120.982 101.752C121.151 101.844 121.306 101.937 121.46 102.06C121.614 102.184 121.753 102.292 121.892 102.415C122.031 102.539 122.154 102.678 122.278 102.832C122.401 102.971 122.509 103.125 122.602 103.295C122.726 103.125 122.849 102.955 122.988 102.801C123.127 102.647 123.281 102.508 123.435 102.369C123.59 102.23 123.76 102.107 123.929 101.999C124.099 101.891 124.284 101.783 124.469 101.69C124.655 101.597 124.855 101.52 125.041 101.458C125.241 101.397 125.442 101.335 125.642 101.304C125.843 101.258 126.059 101.242 126.26 101.227C126.46 101.212 126.676 101.212 126.877 101.227C127.294 101.212 127.71 101.242 128.127 101.335C128.544 101.412 128.945 101.551 129.316 101.736C129.701 101.921 130.056 102.138 130.38 102.4C130.705 102.662 130.998 102.971 131.26 103.295C131.631 103.881 131.893 104.514 132.063 105.193C132.232 105.872 132.31 106.551 132.263 107.246V115.024H129.115V114.963Z" fill="black"/>
<path d="M140.335 115.271C140.196 115.271 140.073 115.271 139.934 115.271C139.795 115.256 139.671 115.24 139.532 115.225C139.393 115.21 139.27 115.179 139.147 115.132C139.023 115.102 138.884 115.055 138.761 115.009C138.637 114.963 138.514 114.901 138.39 114.839C138.267 114.777 138.159 114.716 138.051 114.639C137.943 114.561 137.835 114.484 137.727 114.407C137.619 114.33 137.526 114.237 137.433 114.145C137.341 114.052 137.248 113.944 137.171 113.851C137.094 113.759 137.001 113.635 136.94 113.527C136.862 113.419 136.801 113.296 136.739 113.172C136.677 113.049 136.631 112.925 136.569 112.802C136.523 112.678 136.477 112.555 136.446 112.416C136.415 112.293 136.384 112.154 136.353 112.03C136.338 111.891 136.322 111.768 136.307 111.629C136.291 111.49 136.291 111.367 136.307 111.228V111.089H137.974C137.974 112.601 138.73 113.774 140.335 113.774C140.412 113.79 140.489 113.79 140.582 113.79C140.674 113.79 140.736 113.79 140.829 113.774C140.906 113.759 140.983 113.759 141.06 113.728C141.137 113.713 141.215 113.682 141.292 113.666C141.369 113.635 141.446 113.604 141.523 113.574C141.6 113.543 141.662 113.496 141.739 113.466C141.801 113.419 141.878 113.373 141.94 113.327C142.002 113.28 142.063 113.219 142.125 113.172C142.187 113.111 142.233 113.064 142.295 113.003C142.341 112.941 142.388 112.879 142.434 112.802C142.48 112.74 142.526 112.663 142.557 112.586C142.588 112.509 142.634 112.447 142.65 112.37C142.681 112.293 142.696 112.215 142.727 112.138C142.742 112.061 142.758 111.984 142.773 111.907C142.789 111.83 142.789 111.752 142.789 111.66C142.789 111.567 142.789 111.506 142.789 111.413C142.789 107.94 136.693 109.515 136.693 105.147C136.693 105.024 136.693 104.9 136.708 104.777C136.723 104.653 136.739 104.53 136.754 104.406C136.77 104.283 136.801 104.175 136.847 104.051C136.878 103.928 136.924 103.82 136.97 103.712C137.017 103.604 137.063 103.48 137.125 103.372C137.186 103.264 137.248 103.156 137.31 103.064C137.372 102.956 137.449 102.863 137.526 102.77C137.603 102.678 137.68 102.585 137.773 102.508C137.866 102.415 137.958 102.338 138.051 102.261C138.143 102.184 138.251 102.107 138.344 102.045C138.452 101.983 138.56 101.921 138.668 101.86C138.776 101.798 138.884 101.752 139.008 101.705C139.116 101.659 139.239 101.628 139.363 101.597C139.486 101.567 139.594 101.536 139.718 101.52C139.841 101.505 139.964 101.489 140.088 101.474C140.211 101.474 140.335 101.474 140.458 101.474C140.582 101.474 140.69 101.474 140.813 101.489C140.937 101.505 141.045 101.52 141.168 101.536C141.292 101.551 141.4 101.582 141.508 101.613C141.616 101.644 141.739 101.69 141.847 101.736C141.955 101.783 142.063 101.829 142.171 101.891C142.279 101.952 142.372 102.014 142.48 102.076C142.573 102.138 142.681 102.215 142.758 102.292C142.851 102.369 142.943 102.446 143.02 102.523C143.097 102.601 143.175 102.693 143.252 102.786C143.329 102.878 143.391 102.971 143.468 103.079C143.53 103.172 143.591 103.28 143.653 103.388C143.715 103.496 143.761 103.604 143.807 103.712C143.854 103.82 143.885 103.928 143.915 104.051C143.946 104.159 143.977 104.283 143.993 104.391C144.008 104.514 144.023 104.622 144.039 104.746C144.054 104.869 144.054 104.977 144.054 105.101H142.372C142.372 104.962 142.372 104.838 142.341 104.699C142.326 104.561 142.279 104.437 142.233 104.314C142.187 104.19 142.125 104.067 142.063 103.959C141.986 103.851 141.909 103.743 141.816 103.65C141.724 103.557 141.631 103.465 141.508 103.388C141.4 103.31 141.276 103.249 141.168 103.187C141.06 103.125 140.921 103.094 140.798 103.064C140.674 103.033 140.536 103.017 140.397 103.017C140.258 103.017 140.134 103.017 140.011 103.033C139.887 103.048 139.748 103.094 139.625 103.141C139.501 103.187 139.393 103.249 139.27 103.326C139.162 103.403 139.054 103.48 138.961 103.573C138.869 103.665 138.792 103.773 138.714 103.882C138.637 103.99 138.575 104.113 138.529 104.236C138.483 104.36 138.452 104.483 138.421 104.607C138.406 104.73 138.39 104.869 138.39 104.993C138.39 107.987 144.486 106.428 144.486 111.274C144.486 111.413 144.486 111.552 144.486 111.675C144.486 111.814 144.471 111.938 144.44 112.077C144.425 112.215 144.394 112.339 144.348 112.478C144.317 112.601 144.27 112.74 144.224 112.864C144.178 112.987 144.116 113.111 144.054 113.234C143.993 113.358 143.915 113.466 143.854 113.589C143.777 113.697 143.699 113.805 143.607 113.913C143.514 114.021 143.422 114.114 143.329 114.206C143.236 114.299 143.128 114.392 143.02 114.469C142.912 114.546 142.804 114.623 142.681 114.7C142.573 114.777 142.449 114.839 142.326 114.901C142.202 114.963 142.079 115.009 141.955 115.055C141.832 115.102 141.693 115.132 141.57 115.163C141.431 115.194 141.307 115.225 141.168 115.24C141.029 115.256 140.906 115.271 140.767 115.271C140.613 115.287 140.474 115.287 140.335 115.271Z" fill="black"/>
<path d="M153.175 103.002C153.006 103.002 152.836 103.017 152.666 103.048C152.496 103.079 152.327 103.11 152.157 103.141C151.987 103.187 151.833 103.233 151.663 103.28C151.493 103.326 151.339 103.403 151.185 103.465C151.03 103.527 150.876 103.619 150.722 103.696C150.567 103.789 150.428 103.866 150.289 103.974C150.15 104.067 150.012 104.175 149.888 104.298C149.765 104.406 149.641 104.53 149.518 104.653C149.394 104.777 149.286 104.9 149.178 105.039C149.07 105.178 148.978 105.317 148.885 105.456C148.792 105.595 148.7 105.749 148.623 105.903C148.545 106.058 148.468 106.212 148.407 106.366C148.345 106.521 148.283 106.69 148.237 106.845C148.19 107.014 148.144 107.169 148.113 107.339C148.082 107.508 148.052 107.678 148.036 107.848C148.021 108.018 148.005 108.187 148.005 108.357C148.005 108.527 148.021 108.697 148.036 108.866C148.052 109.036 148.082 109.206 148.113 109.376C148.144 109.546 148.19 109.715 148.237 109.87C148.283 110.039 148.345 110.194 148.407 110.348C148.468 110.502 148.545 110.657 148.623 110.811C148.7 110.965 148.792 111.104 148.885 111.259C148.978 111.413 149.07 111.536 149.178 111.675C149.286 111.814 149.394 111.938 149.518 112.061C149.641 112.185 149.765 112.308 149.888 112.416C150.012 112.524 150.15 112.632 150.289 112.74C150.428 112.833 150.567 112.925 150.722 113.018C150.876 113.111 151.03 113.188 151.185 113.25C151.339 113.327 151.493 113.388 151.663 113.435C151.833 113.496 151.987 113.543 152.157 113.574C152.327 113.604 152.496 113.651 152.666 113.666C152.836 113.697 153.006 113.713 153.175 113.713C153.345 113.713 153.53 113.713 153.7 113.697C153.87 113.682 154.055 113.666 154.225 113.635C154.395 113.604 154.564 113.574 154.734 113.512C154.904 113.466 155.074 113.404 155.228 113.342C155.382 113.28 155.552 113.203 155.706 113.126C155.861 113.049 156.015 112.956 156.169 112.864C156.324 112.771 156.463 112.663 156.602 112.555C156.74 112.447 156.864 112.324 157.003 112.2C157.126 112.077 157.25 111.938 157.358 111.814C157.466 111.675 157.574 111.536 157.666 111.382C157.759 111.228 157.852 111.089 157.929 110.919C158.006 110.765 158.083 110.595 158.145 110.441C158.207 110.271 158.268 110.117 158.315 109.947C158.361 109.777 158.407 109.607 158.438 109.437C158.469 109.268 158.5 109.083 158.5 108.913C158.515 108.743 158.515 108.558 158.515 108.388C158.515 108.203 158.515 108.033 158.5 107.848C158.484 107.663 158.469 107.493 158.438 107.323C158.407 107.153 158.376 106.968 158.315 106.798C158.268 106.629 158.207 106.459 158.145 106.289C158.083 106.119 158.006 105.965 157.929 105.795C157.852 105.641 157.759 105.487 157.666 105.332C157.574 105.178 157.466 105.039 157.358 104.9C157.25 104.761 157.126 104.622 157.003 104.499C156.879 104.375 156.74 104.252 156.602 104.144C156.463 104.036 156.324 103.928 156.169 103.82C156.015 103.727 155.861 103.635 155.706 103.542C155.552 103.465 155.382 103.388 155.228 103.31C155.058 103.249 154.888 103.187 154.719 103.141C154.549 103.094 154.379 103.048 154.194 103.017C154.024 102.986 153.839 102.956 153.669 102.956C153.53 103.002 153.361 103.002 153.175 103.002ZM153.175 115.271C152.928 115.271 152.682 115.271 152.435 115.24C152.188 115.21 151.941 115.179 151.694 115.117C151.447 115.055 151.215 114.993 150.984 114.916C150.752 114.839 150.521 114.731 150.305 114.623C150.089 114.515 149.873 114.392 149.657 114.253C149.456 114.114 149.255 113.959 149.07 113.805C148.885 113.651 148.7 113.466 148.53 113.296C148.36 113.126 148.206 112.925 148.067 112.725H148.021V119.639H146.369V101.829H148.052V104.144H148.098C148.237 103.943 148.391 103.743 148.561 103.557C148.731 103.372 148.9 103.202 149.086 103.033C149.271 102.863 149.471 102.709 149.672 102.57C149.873 102.431 150.089 102.307 150.32 102.184C150.536 102.076 150.768 101.968 150.999 101.875C151.231 101.783 151.478 101.721 151.709 101.659C151.956 101.597 152.203 101.551 152.45 101.536C152.697 101.505 152.944 101.489 153.191 101.505C153.422 101.505 153.638 101.52 153.87 101.536C154.101 101.551 154.317 101.597 154.534 101.628C154.75 101.675 154.981 101.721 155.197 101.798C155.413 101.86 155.629 101.937 155.83 102.03C156.046 102.122 156.247 102.215 156.447 102.323C156.648 102.431 156.833 102.539 157.034 102.678C157.219 102.801 157.404 102.94 157.574 103.079C157.744 103.218 157.913 103.372 158.068 103.527C158.222 103.681 158.376 103.851 158.515 104.02C158.654 104.19 158.793 104.375 158.917 104.561C159.04 104.746 159.164 104.946 159.272 105.147C159.38 105.348 159.472 105.548 159.565 105.764C159.657 105.98 159.735 106.181 159.796 106.397C159.858 106.613 159.92 106.829 159.966 107.061C160.012 107.277 160.043 107.508 160.059 107.724C160.074 107.956 160.09 108.172 160.09 108.403C160.09 108.635 160.074 108.851 160.059 109.083C160.043 109.314 159.997 109.53 159.966 109.746C159.92 109.962 159.873 110.194 159.796 110.41C159.735 110.626 159.657 110.842 159.565 111.043C159.472 111.259 159.38 111.459 159.272 111.66C159.164 111.861 159.055 112.046 158.917 112.246C158.793 112.432 158.654 112.617 158.515 112.787C158.376 112.956 158.222 113.126 158.068 113.28C157.913 113.435 157.744 113.589 157.574 113.728C157.404 113.867 157.219 114.006 157.034 114.129C156.849 114.253 156.648 114.376 156.447 114.484C156.247 114.592 156.046 114.685 155.83 114.777C155.614 114.87 155.413 114.947 155.197 115.009C154.981 115.071 154.765 115.132 154.534 115.179C154.317 115.225 154.086 115.256 153.87 115.271C153.638 115.287 153.422 115.302 153.191 115.302L153.175 115.271Z" fill="black"/>
<path d="M168.778 103.002C168.593 103.002 168.423 103.002 168.238 103.002C168.053 103.017 167.883 103.033 167.714 103.064C167.544 103.094 167.359 103.125 167.189 103.172C167.019 103.218 166.849 103.28 166.68 103.341C166.51 103.403 166.355 103.48 166.186 103.557C166.031 103.635 165.877 103.727 165.723 103.82C165.568 103.912 165.429 104.02 165.291 104.128C165.152 104.236 165.013 104.36 164.889 104.483C164.766 104.607 164.642 104.73 164.519 104.869C164.395 105.008 164.287 105.147 164.195 105.286C164.102 105.425 163.994 105.579 163.917 105.733C163.824 105.888 163.747 106.042 163.67 106.212C163.593 106.382 163.531 106.536 163.485 106.706C163.423 106.876 163.377 107.045 163.346 107.215C163.315 107.385 163.284 107.57 163.253 107.74C163.238 107.91 163.222 108.095 163.222 108.265C163.222 108.45 163.222 108.62 163.238 108.805C163.253 108.99 163.269 109.16 163.3 109.329C163.33 109.499 163.377 109.684 163.423 109.854C163.469 110.024 163.531 110.194 163.593 110.363C163.655 110.533 163.732 110.688 163.809 110.842C163.886 110.996 163.979 111.151 164.071 111.305C164.164 111.459 164.272 111.598 164.38 111.737C164.488 111.876 164.611 112.015 164.735 112.138C164.858 112.262 164.997 112.385 165.121 112.493C165.244 112.601 165.399 112.709 165.553 112.817C165.707 112.91 165.846 113.018 166 113.095C166.155 113.188 166.325 113.265 166.479 113.327C166.649 113.388 166.803 113.45 166.973 113.512C167.143 113.558 167.312 113.604 167.482 113.651C167.652 113.682 167.837 113.713 168.007 113.728C168.177 113.743 168.362 113.759 168.547 113.759C168.732 113.759 168.902 113.743 169.087 113.728C169.257 113.713 169.442 113.682 169.612 113.651C169.782 113.62 169.951 113.574 170.137 113.527C170.306 113.481 170.476 113.419 170.646 113.342C170.816 113.28 170.97 113.203 171.124 113.111C171.279 113.018 171.433 112.941 171.587 112.833C171.742 112.74 171.881 112.632 172.019 112.509C172.158 112.401 172.282 112.277 172.405 112.154C172.529 112.03 172.652 111.891 172.76 111.752C172.868 111.614 172.976 111.475 173.069 111.32C173.162 111.166 173.254 111.012 173.347 110.857C173.424 110.703 173.501 110.533 173.563 110.379C173.625 110.209 173.686 110.039 173.733 109.87C173.779 109.7 173.825 109.53 173.856 109.345C173.887 109.175 173.918 108.99 173.933 108.82C173.949 108.65 173.949 108.465 173.949 108.28C173.949 108.11 173.933 107.94 173.918 107.771C173.902 107.601 173.871 107.431 173.841 107.261C173.81 107.092 173.763 106.922 173.717 106.768C173.671 106.598 173.609 106.443 173.547 106.289C173.486 106.135 173.408 105.98 173.331 105.826C173.254 105.672 173.162 105.533 173.069 105.379C172.976 105.24 172.868 105.101 172.776 104.962C172.668 104.823 172.56 104.699 172.436 104.576C172.313 104.453 172.189 104.344 172.066 104.221C171.942 104.113 171.803 104.005 171.664 103.912C171.526 103.82 171.371 103.727 171.232 103.635C171.078 103.557 170.924 103.48 170.769 103.403C170.615 103.341 170.461 103.28 170.291 103.218C170.121 103.172 169.967 103.125 169.797 103.079C169.627 103.048 169.458 103.017 169.288 102.986C169.118 102.971 168.948 102.956 168.778 102.956V103.002ZM168.778 115.271C168.547 115.271 168.331 115.256 168.099 115.24C167.868 115.225 167.652 115.179 167.436 115.148C167.22 115.102 166.988 115.055 166.772 114.978C166.556 114.916 166.34 114.839 166.139 114.747C165.923 114.654 165.723 114.561 165.522 114.453C165.321 114.345 165.136 114.237 164.936 114.098C164.75 113.975 164.565 113.836 164.395 113.697C164.226 113.558 164.056 113.404 163.902 113.25C163.747 113.095 163.593 112.925 163.454 112.756C163.315 112.586 163.176 112.401 163.053 112.215C162.929 112.03 162.806 111.83 162.698 111.629C162.59 111.428 162.497 111.228 162.405 111.012C162.312 110.796 162.235 110.595 162.173 110.379C162.111 110.163 162.05 109.947 162.003 109.715C161.957 109.499 161.926 109.268 161.911 109.052C161.895 108.82 161.88 108.604 161.88 108.373C161.88 108.141 161.895 107.925 161.911 107.694C161.926 107.462 161.972 107.246 162.003 107.03C162.034 106.814 162.096 106.582 162.173 106.366C162.235 106.15 162.312 105.934 162.405 105.733C162.497 105.517 162.59 105.317 162.698 105.116C162.806 104.916 162.914 104.73 163.053 104.53C163.176 104.344 163.315 104.159 163.454 103.99C163.593 103.82 163.747 103.65 163.902 103.496C164.056 103.341 164.226 103.187 164.395 103.048C164.565 102.909 164.75 102.77 164.936 102.647C165.121 102.523 165.321 102.4 165.522 102.292C165.723 102.184 165.923 102.091 166.139 101.999C166.355 101.906 166.556 101.829 166.772 101.767C166.988 101.705 167.204 101.644 167.436 101.597C167.652 101.551 167.883 101.52 168.099 101.505C168.315 101.489 168.547 101.474 168.778 101.474C169.01 101.474 169.226 101.489 169.458 101.505C169.689 101.52 169.905 101.567 170.121 101.597C170.337 101.628 170.569 101.69 170.785 101.767C171.001 101.829 171.217 101.906 171.418 101.999C171.618 102.091 171.834 102.184 172.035 102.292C172.236 102.4 172.421 102.508 172.621 102.647C172.807 102.77 172.992 102.909 173.162 103.048C173.331 103.187 173.501 103.341 173.655 103.496C173.81 103.65 173.964 103.82 174.103 103.99C174.242 104.159 174.381 104.344 174.504 104.53C174.628 104.715 174.751 104.916 174.859 105.116C174.967 105.317 175.06 105.517 175.152 105.733C175.245 105.95 175.322 106.15 175.384 106.366C175.446 106.582 175.507 106.798 175.554 107.03C175.6 107.246 175.631 107.477 175.646 107.694C175.662 107.91 175.677 108.141 175.677 108.373C175.677 108.604 175.662 108.82 175.646 109.052C175.631 109.283 175.585 109.499 175.538 109.715C175.492 109.931 175.446 110.147 175.368 110.363C175.307 110.58 175.23 110.796 175.137 110.996C175.044 111.197 174.952 111.413 174.844 111.614C174.736 111.814 174.628 111.999 174.489 112.2C174.365 112.385 174.226 112.57 174.088 112.74C173.949 112.91 173.794 113.08 173.64 113.234C173.486 113.388 173.316 113.543 173.146 113.682C172.976 113.821 172.791 113.959 172.606 114.083C172.421 114.206 172.22 114.33 172.019 114.438C171.819 114.546 171.618 114.639 171.402 114.731C171.201 114.824 170.985 114.901 170.769 114.963C170.553 115.024 170.337 115.086 170.121 115.132C169.905 115.179 169.674 115.21 169.458 115.24C169.226 115.256 168.995 115.271 168.778 115.271Z" fill="black"/>
<path d="M179.643 107.277V114.963H177.977V101.829H179.643V103.727H179.69C180.415 102.045 181.681 101.613 183.394 101.489V103.264C183.27 103.264 183.131 103.28 183.008 103.295C182.884 103.31 182.761 103.326 182.638 103.357C182.514 103.388 182.391 103.418 182.267 103.449C182.144 103.496 182.02 103.542 181.912 103.588C181.789 103.635 181.681 103.696 181.573 103.758C181.465 103.82 181.357 103.897 181.249 103.959C181.141 104.036 181.048 104.113 180.955 104.19C180.863 104.267 180.77 104.36 180.678 104.453C180.585 104.545 180.508 104.638 180.431 104.746C180.353 104.854 180.276 104.946 180.215 105.054C180.153 105.162 180.091 105.27 180.029 105.394C179.968 105.502 179.921 105.625 179.875 105.749C179.829 105.872 179.798 105.996 179.767 106.119C179.736 106.243 179.705 106.366 179.69 106.49C179.674 106.613 179.659 106.737 179.659 106.876C179.659 107.014 179.628 107.153 179.643 107.277Z" fill="black"/>
<path d="M188.194 103.341V114.963H186.48V103.341H183.718V101.829H186.48V97.1834H188.194V101.829H191.342V103.341H188.194Z" fill="black"/>
<path d="M195.895 115.271C195.756 115.271 195.632 115.271 195.493 115.271C195.355 115.256 195.231 115.24 195.092 115.225C194.953 115.21 194.83 115.179 194.706 115.132C194.583 115.102 194.444 115.055 194.321 115.009C194.197 114.963 194.074 114.901 193.95 114.839C193.827 114.777 193.719 114.716 193.611 114.639C193.503 114.561 193.395 114.484 193.287 114.407C193.178 114.33 193.086 114.237 192.993 114.145C192.901 114.052 192.808 113.944 192.731 113.851C192.654 113.743 192.561 113.635 192.499 113.527C192.422 113.419 192.361 113.296 192.299 113.172C192.237 113.049 192.175 112.925 192.129 112.802C192.083 112.678 192.036 112.555 192.006 112.416C191.975 112.293 191.944 112.154 191.913 112.03C191.898 111.891 191.882 111.768 191.867 111.629C191.851 111.49 191.851 111.367 191.867 111.228V111.089H193.549C193.549 112.601 194.29 113.774 195.91 113.774C195.987 113.79 196.065 113.79 196.157 113.79C196.234 113.79 196.311 113.79 196.404 113.774C196.481 113.759 196.558 113.759 196.636 113.728C196.713 113.697 196.79 113.682 196.867 113.666C196.944 113.635 197.021 113.604 197.099 113.574C197.176 113.543 197.237 113.496 197.315 113.466C197.376 113.419 197.454 113.373 197.515 113.327C197.577 113.28 197.639 113.219 197.7 113.172C197.762 113.111 197.808 113.064 197.87 113.003C197.917 112.941 197.963 112.879 198.009 112.802C198.055 112.74 198.102 112.663 198.133 112.586C198.163 112.509 198.21 112.447 198.225 112.37C198.256 112.293 198.271 112.215 198.302 112.138C198.318 112.061 198.333 111.984 198.349 111.907C198.364 111.83 198.364 111.752 198.364 111.66C198.364 111.583 198.364 111.506 198.364 111.413C198.364 107.94 192.268 109.515 192.268 105.147C192.268 105.024 192.268 104.9 192.283 104.777C192.299 104.653 192.314 104.53 192.33 104.406C192.345 104.283 192.376 104.175 192.422 104.051C192.453 103.928 192.499 103.82 192.546 103.712C192.592 103.604 192.638 103.48 192.7 103.372C192.762 103.264 192.824 103.156 192.885 103.064C192.947 102.956 193.024 102.863 193.101 102.77C193.178 102.678 193.256 102.585 193.348 102.508C193.441 102.415 193.533 102.338 193.626 102.261C193.719 102.184 193.827 102.107 193.919 102.045C194.027 101.983 194.135 101.921 194.243 101.86C194.351 101.798 194.459 101.752 194.583 101.705C194.691 101.659 194.814 101.628 194.938 101.597C195.061 101.567 195.169 101.536 195.293 101.52C195.416 101.505 195.54 101.489 195.663 101.474C195.787 101.474 195.91 101.474 196.034 101.474C196.157 101.474 196.265 101.474 196.389 101.489C196.512 101.505 196.62 101.52 196.744 101.536C196.867 101.551 196.975 101.582 197.099 101.613C197.207 101.644 197.33 101.69 197.438 101.721C197.546 101.767 197.654 101.813 197.762 101.875C197.87 101.937 197.963 101.983 198.071 102.06C198.163 102.122 198.271 102.199 198.364 102.276C198.457 102.354 198.549 102.431 198.626 102.523C198.704 102.601 198.796 102.693 198.873 102.786C198.951 102.878 199.012 102.971 199.089 103.079C199.151 103.172 199.213 103.28 199.275 103.388C199.336 103.496 199.383 103.604 199.429 103.712C199.475 103.82 199.506 103.928 199.537 104.051C199.568 104.159 199.599 104.283 199.614 104.406C199.63 104.53 199.645 104.638 199.66 104.761C199.676 104.885 199.676 104.993 199.676 105.116H197.994C197.994 104.977 197.994 104.854 197.963 104.715C197.932 104.576 197.901 104.453 197.855 104.329C197.808 104.206 197.747 104.082 197.685 103.974C197.608 103.866 197.531 103.758 197.438 103.665C197.345 103.573 197.253 103.48 197.145 103.403C197.037 103.326 196.913 103.264 196.805 103.202C196.682 103.156 196.558 103.11 196.435 103.079C196.311 103.048 196.173 103.033 196.034 103.033C195.972 103.033 195.895 103.033 195.833 103.033C195.771 103.033 195.694 103.033 195.632 103.048C195.571 103.064 195.509 103.064 195.432 103.079C195.355 103.094 195.308 103.11 195.247 103.141C195.185 103.156 195.123 103.187 195.061 103.218C195 103.249 194.938 103.28 194.892 103.31C194.83 103.341 194.784 103.388 194.722 103.419C194.676 103.465 194.614 103.496 194.567 103.542C194.521 103.588 194.475 103.635 194.429 103.681C194.382 103.727 194.351 103.789 194.305 103.835C194.274 103.897 194.228 103.943 194.197 104.005C194.166 104.067 194.135 104.128 194.104 104.19C194.074 104.252 194.058 104.314 194.043 104.375C194.027 104.437 194.012 104.499 193.996 104.576C193.981 104.638 193.981 104.699 193.966 104.777C193.966 104.838 193.966 104.916 193.966 104.977C193.966 107.971 200.062 106.413 200.062 111.259C200.077 111.398 200.077 111.536 200.062 111.66C200.062 111.799 200.046 111.922 200.015 112.061C200 112.2 199.969 112.324 199.938 112.462C199.907 112.586 199.861 112.725 199.815 112.848C199.768 112.972 199.707 113.095 199.645 113.219C199.583 113.342 199.522 113.45 199.444 113.574C199.367 113.682 199.29 113.79 199.197 113.898C199.105 114.006 199.012 114.098 198.92 114.191C198.827 114.284 198.719 114.376 198.611 114.453C198.503 114.53 198.395 114.608 198.287 114.685C198.179 114.762 198.055 114.824 197.932 114.885C197.808 114.947 197.685 114.993 197.562 115.04C197.438 115.086 197.299 115.132 197.176 115.163C197.037 115.194 196.913 115.225 196.774 115.24C196.636 115.256 196.512 115.271 196.373 115.271C196.157 115.287 196.018 115.287 195.895 115.271Z" fill="black"/>
</g>
<defs>
<clipPath id="clip0_1_4">
<rect width="200" height="200" fill="white"/>
</clipPath>
</defs>
</svg>
