<svg width="200" height="200" viewBox="0 0 200 200" fill="none" xmlns="http://www.w3.org/2000/svg">
<g clip-path="url(#clip0_1_23)">
<path d="M197.42 111.14V110.58H197.76C197.94 110.58 198.22 110.6 198.22 110.82C198.22 111.06 198.08 111.12 197.86 111.12H197.42M197.42 111.52H197.66L198.22 112.48H198.82L198.2 111.48C198.5 111.46 198.78 111.32 198.78 110.88C198.78 110.34 198.42 110.18 197.8 110.18H196.92V112.48H197.44L197.42 111.52ZM200 111.34C200 109.98 198.96 109.2 197.78 109.2C196.62 109.2 195.56 109.98 195.56 111.34C195.56 112.7 196.6 113.48 197.78 113.48C198.96 113.48 200 112.7 200 111.34ZM199.36 111.34C199.36 112.32 198.64 112.98 197.78 112.98C196.9 112.98 196.2 112.32 196.2 111.34C196.2 110.36 196.92 109.7 197.78 109.7C198.64 109.72 199.36 110.38 199.36 111.34Z" fill="black"/>
<path d="M118.64 88.54V112.76H125.48V88.54H118.64ZM64.88 88.5V112.74H71.78V93.92L77.16 93.94C78.92 93.94 80.16 94.38 81 95.28C82.08 96.42 82.52 98.3 82.52 101.68V112.74H89.2V99.36C89.2 89.8 83.1 88.5 77.16 88.5C77.16 88.5 64.88 88.5 64.88 88.5ZM129.66 88.54V112.76H140.74C146.64 112.76 148.58 111.78 150.66 109.58C152.14 108.04 153.08 104.64 153.08 100.92C153.08 97.52 152.28 94.48 150.86 92.58C148.36 89.2 144.7 88.54 139.24 88.54H129.66ZM136.44 93.8H139.38C143.64 93.8 146.4 95.7 146.4 100.68C146.4 105.64 143.66 107.56 139.38 107.56H136.44V93.8ZM108.8 88.54L103.1 107.72L97.64 88.54H90.26L98.06 112.76H107.9L115.76 88.54H108.8ZM156.28 112.74H163.12V88.54H156.28V112.74ZM175.44 88.54L165.9 112.74H172.64L174.16 108.48H185.46L186.9 112.74H194.22L184.58 88.54H175.44ZM179.88 92.96L184.02 104.28H175.6L179.88 92.96Z" fill="black"/>
<path d="M20.78 92.56V89.24C21.1 89.22 21.44 89.2 21.76 89.2C30.88 88.92 36.84 97.02 36.84 97.02C36.84 97.02 30.4 105.98 23.48 105.98C22.48 105.98 21.6 105.82 20.8 105.54V95.44C24.34 95.88 25.06 97.44 27.2 100.98L31.94 96.98C31.94 96.98 28.48 92.44 22.64 92.44C22 92.46 21.38 92.5 20.78 92.56ZM20.78 81.56V86.52C21.1 86.5 21.44 86.48 21.76 86.46C34.42 86.02 42.68 96.84 42.68 96.84C42.68 96.84 33.2 108.38 23.34 108.38C22.44 108.38 21.6 108.3 20.8 108.16V111.24C21.48 111.32 22.2 111.38 22.92 111.38C32.12 111.38 38.76 106.68 45.2 101.14C46.26 102 50.64 104.08 51.54 104.98C45.42 110.1 31.16 114.24 23.08 114.24C22.3 114.24 21.56 114.2 20.82 114.12V118.44H55.76V81.56H20.78ZM20.78 105.56V108.18C12.28 106.66 9.92 97.82 9.92 97.82C9.92 97.82 14 93.3 20.78 92.56V95.44C20.78 95.44 20.78 95.44 20.76 95.44C17.22 95 14.42 98.34 14.42 98.34C14.42 98.34 16 103.92 20.78 105.56ZM5.68 97.44C5.68 97.44 10.72 90.02 20.78 89.24V86.54C9.64 87.44 0 96.88 0 96.88C0 96.88 5.46 112.68 20.78 114.14V111.26C9.54 109.84 5.68 97.44 5.68 97.44Z" fill="black"/>
</g>
<defs>
<clipPath id="clip0_1_23">
<rect width="200" height="200" fill="white"/>
</clipPath>
</defs>
</svg>
