<svg width="200" height="200" viewBox="0 0 200 200" fill="none" xmlns="http://www.w3.org/2000/svg">
<path d="M52.5624 106.773H57.0742C58.8346 106.773 59.504 107.381 59.504 108.869C59.504 110.301 58.8343 110.908 57.0742 110.908H52.5624V106.773ZM45.5726 121.822H52.5627V115.703H60.0498C65.007 115.703 66.7917 112.783 66.7917 109.007C66.7917 104.625 64.9565 102.145 59.9994 102.145H45.5726V121.822Z" fill="black"/>
<path d="M69.0969 102.145H87.9099V106.939H76.087V109.585H87.0685V114.381H76.087V117.027H87.9099V121.822H69.0969V102.145Z" fill="black"/>
<path d="M97.8258 106.773H102.337C104.097 106.773 104.767 107.381 104.767 108.869C104.767 110.301 104.097 110.908 102.337 110.908H97.8258V106.773ZM90.8358 121.822H97.8258V115.703H105.312C110.27 115.703 112.055 112.783 112.055 109.007C112.055 104.625 110.22 102.145 105.262 102.145H90.8358V121.822Z" fill="black"/>
<path d="M118.821 113.471C115.401 112.892 113.989 110.687 113.989 107.932C113.989 102.832 118.476 101.456 124.225 101.456C132.107 101.456 135.355 103.742 135.603 107.904H127.472C127.472 107.105 127.05 106.608 126.407 106.333C125.787 106.03 124.994 105.92 124.225 105.92C122.143 105.92 121.425 106.498 121.425 107.326C121.425 107.876 121.647 108.235 122.341 108.345L130.695 109.723C134.215 110.301 136.397 112.12 136.397 115.454C136.397 120.251 132.876 122.511 125.018 122.511C119.64 122.511 113.764 121.684 113.74 115.897H122.168C122.192 116.557 122.416 116.998 122.912 117.301C123.431 117.577 124.2 117.716 125.29 117.716C127.471 117.716 128.067 117.054 128.067 116.116C128.067 115.538 127.744 114.959 126.804 114.795L118.821 113.471Z" fill="black"/>
<path d="M138.676 102.145H145.666V121.822H138.676V102.145Z" fill="black"/>
<path d="M171.571 114.16C171.125 116.751 170.33 118.846 168.595 120.278C166.886 121.711 164.208 122.511 159.945 122.511C155.707 122.511 147.849 122.179 147.849 111.984C147.849 101.786 155.707 101.455 159.945 101.455C164.158 101.455 170.653 102.061 171.571 109.861H163.688C163.49 108.455 162.646 106.415 159.945 106.415C157.093 106.415 155.284 107.986 155.284 111.983C155.284 115.98 157.044 117.549 159.597 117.549C161.804 117.549 163.118 116.53 163.688 114.16L171.571 114.16Z" fill="black"/>
<path d="M180.717 111.984C180.717 107.987 182.527 106.416 185.378 106.416C188.228 106.416 190.039 107.987 190.039 111.984C190.039 115.98 188.228 117.55 185.378 117.55C182.527 117.55 180.717 115.98 180.717 111.984ZM173.28 111.984C173.28 122.179 181.138 122.511 185.378 122.511C189.617 122.511 197.475 122.18 197.475 111.984C197.475 101.786 189.617 101.456 185.378 101.456C181.138 101.456 173.28 101.786 173.28 111.984Z" fill="black"/>
<path d="M35.0103 102.34C35.4617 92.8992 27.3203 82.2678 16.2213 80.9537L16.2403 80.8247C27.1822 80.8247 35.5704 90.9543 35.5704 98.9456C35.5599 100.609 35.4285 101.64 35.1942 102.388L35.0103 102.34ZM34.3473 103.54C33.6193 104.429 32.7038 105.325 31.6311 106.175C29.6577 94.8255 21.3176 84.9011 15.4212 82.0044L15.2949 82.0924C21.2248 86.9591 28.2975 96.4112 31.048 106.62C29.7322 107.59 28.2112 108.483 26.5307 109.207C20.935 102.826 15.7182 90.5192 14.037 82.7097L13.866 82.7611C13.904 90.3417 19.286 103.211 25.8495 109.49C24.3928 110.065 22.8264 110.513 21.1815 110.78C14.89 108.287 10.4116 100.304 10.4116 92.1268C10.4116 86.7885 12.0393 83.4861 12.3542 82.8102L12.2201 82.7571C11.8392 83.3334 9.45474 86.6341 9.45474 92.3974C9.45474 101.641 14.0133 108.706 20.0655 110.931C17.9949 111.156 15.816 111.088 13.5806 110.627L13.5356 110.768C14.183 111.006 16.3795 111.928 19.7303 111.928C27.3092 111.928 32.4325 107.219 34.495 103.64L34.3473 103.54Z" fill="black"/>
<path d="M18.9725 77.4891C13.2271 77.4891 6.4903 81.6356 6.4903 85.4259C6.4903 86.8921 7.83149 88.1307 10.6073 88.1307C17.0513 88.1307 23.0381 83.7035 23.0381 80.2609C23.0381 78.4494 21.2983 77.4891 18.9725 77.4891ZM21.2662 80.1539C21.2662 83.0557 15.6938 86.6029 11.0357 86.6029C8.97766 86.6029 7.86569 85.793 7.86569 84.4565C7.86569 81.5131 13.5014 78.0262 17.8707 78.0262C20.7193 78.0262 21.2662 79.4757 21.2662 80.1539Z" fill="black"/>
<path d="M4.20137 87.1809C4.03986 87.4603 3.39313 88.7266 3.39313 90.0241C3.39313 92.4306 5.82462 94.6647 10.2969 94.6647C18.9004 94.6647 28.8403 88.3318 28.8403 82.4534C28.8403 79.8146 26.3425 78.38 24.6082 78.0834L24.5757 78.1863C25.115 78.357 27.0911 79.2756 27.0911 81.6262C27.0911 86.31 18.3149 92.692 9.57293 92.692C6.2262 92.692 4.11773 91.0399 4.11773 88.6335C4.11773 87.8723 4.2762 87.3709 4.31819 87.2256L4.20137 87.1809Z" fill="black"/>
<path d="M32.3875 82.8929C32.6235 83.072 34.0405 84.253 34.0405 86.4864C34.0405 94.1016 22.1089 101.59 11.5605 101.59C5.26997 101.59 2.40236 98.4837 2.52933 95.7258H2.64209C2.88859 97.1581 4.93103 99.721 10.4367 99.721C20.9983 99.721 32.7908 91.9728 32.7908 85.1842C32.7908 84.0197 32.4745 83.2941 32.2957 82.9714L32.3875 82.8929Z" fill="black"/>
<path d="M36.3755 90.0021C36.425 90.1643 36.682 90.8933 36.682 92.0351C36.682 100.506 24.6071 107.758 14.1054 107.758C8.70034 107.758 5.87777 105.133 5.28183 104.067L5.37799 103.995C6.87359 105.304 9.81942 106.297 13.2572 106.297C22.5322 106.297 36.3718 99.2409 36.2482 90.0329L36.3755 90.0021Z" fill="black"/>
</svg>
